HIERARCHY
ROOT pelvis
{
  OFFSET 0 100 0
  CHANNELS 6 Xposition Yposition Zposition Zrotation Xrotation Yrotation
  JOINT pelvis_right_femur
  {
    OFFSET -10.78128 -3.44521 -0.5502486
    CHANNELS 3 Zrotation Xrotation Yrotation
    JOINT right_femur_tibia
    {
      OFFSET -0.8047443 -44.0398 -0.1307829
      CHANNELS 3 Zrotation Xrotation Yrotation
      JOINT right_tibia_foot
      {
        OFFSET 3.006224 -47.83518 -5
        CHANNELS 3 Zrotation Xrotation Yrotation
        End Site
        {
          OFFSET 0 -5 15
        }
      }
    }
  }
  JOINT pelvis_left_femur
  {
    OFFSET 10.78128 -3.44521 -0.5502486
    CHANNELS 3 Zrotation Xrotation Yrotation
    JOINT left_femur_tibia
    {
      OFFSET 0.8047443 -44.0398 -0.1307829
      CHANNELS 3 Zrotation Xrotation Yrotation
      JOINT left_tibia_foot
      {
        OFFSET -4.370144 -48.10324 -4.275266
        CHANNELS 3 Zrotation Xrotation Yrotation
        End Site
        {
          OFFSET 0 -5 15
        }
      }
    }
  }
  JOINT pelvis_spine1
  {
    OFFSET 0 6.468898 -3.129235
    CHANNELS 3 Zrotation Xrotation Yrotation
    JOINT spine1
    {
      OFFSET 0 23.15396 4.99043
      CHANNELS 3 Zrotation Xrotation Yrotation
      JOINT spine2
      {
        OFFSET 0 20.79997 -5.064912
        CHANNELS 3 Zrotation Xrotation Yrotation
        JOINT neck
        {
          OFFSET 0 14.38658 9.616178
          CHANNELS 3 Zrotation Xrotation Yrotation
          End Site
          {
            OFFSET 0 20 0
          }
        }
      }
      JOINT right_manubrium
      {
        OFFSET -5.722621 16.35077 3.967754
        CHANNELS 3 Zrotation Xrotation Yrotation
        JOINT right_clavicle
        {
          OFFSET -13.16364 1.694482 -4.693211
          CHANNELS 3 Zrotation Xrotation Yrotation
          JOINT right_humerus
          {
            OFFSET -28.5034 -0.3100689 -2.792744
            CHANNELS 3 Zrotation Xrotation Yrotation
            JOINT right_radius
            {
              OFFSET -25.15693 0.02248979 -1.271978
              CHANNELS 3 Zrotation Xrotation Yrotation
              End Site
              {
                OFFSET -15 0 0
              }
            }
          }
        }
      }
      JOINT left_manubrium
      {
        OFFSET 5.722621 16.35077 3.967754
        CHANNELS 3 Zrotation Xrotation Yrotation
        JOINT left_clavicle
        {
          OFFSET 13.16364 1.694482 -4.693211
          CHANNELS 3 Zrotation Xrotation Yrotation
          JOINT left_humerus
          {
            OFFSET 29.39168 -1.063119 -2.237045
            CHANNELS 3 Zrotation Xrotation Yrotation
            JOINT left_radius
            {
              OFFSET 24.59957 -0.9528479 0.9047498
              CHANNELS 3 Zrotation Xrotation Yrotation
              End Site
              {
                OFFSET 15 -0 -0
              }
            }
          }
        }
      }
    }
  }
}
MOTION
Frames: 18
Frame Time: 0.0416666666667
0 103.5113 0 -0.1543309 2.264169 0.3847549 3.759308 -16.02868 7.414767 -1.188858e-09 35.52351 2.370416e-09 -8.366489 -12.07357 -0.9351683 -6.488101 4.329116 -21.44913 9.259639e-09 3.441759 2.894353e-09 5.670183 -16.72547 22.21341 -3.170927 -2.583329 4.51905 2.603169 8.619251 -7.521055 0.7532638 21.1442 7.695286 4.126729 -26.49492 8.918428 6.947224 -20.66345 11.63275 83.46959 38.50209 -16.46209 -3.815098e-09 -2.900029e-09 17.42854 -8.441245 8.681814 7.065299 4.742386 -18.51086 -1.429691 -96.3712 29.42606 26.74358 1.250747e-09 -1.845842e-09 -14.26692 3.325272 16.04227 11.36278
0.5520665 103.7611 2.142546 -0.09313949 2.148755 0.8475848 3.590256 -17.47777 7.472887 -1.230801e-09 37.75384 2.632026e-09 -8.111876 -11.17036 -1.231146 -6.692324 6.156338 -21.79909 1.019737e-08 3.390577 2.826085e-09 5.655587 -17.33303 22.22628 -3.322887 -2.535423 4.252129 2.595687 8.541273 -7.614898 0.7918105 21.29113 7.818625 4.162713 -26.44878 9.099704 7.091306 -20.20351 11.5488 84.19847 38.64073 -17.16119 -3.92475e-09 -2.967977e-09 16.80378 -8.346122 8.648655 6.917863 4.779716 -18.49951 -1.465516 -96.16189 29.7742 25.96169 1.363954e-09 -1.982471e-09 -14.58509 3.277947 16.01688 11.48962
1.083832 104.0387 4.320795 -0.07514266 2.090309 1.364533 3.562707 -19.16848 7.41264 -1.25074e-09 38.46272 2.66089e-09 -7.943195 -10.49725 -1.5131 -6.758638 7.954195 -21.93011 1.028691e-08 3.438861 2.635265e-09 5.63345 -17.91976 22.0969 -3.39949 -2.498571 4.002081 2.634646 8.49764 -7.767614 0.8147325 21.37822 7.89736 4.174343 -26.39384 9.212812 7.121242 -19.78915 11.47783 84.97475 38.62629 -18.01587 -3.866002e-09 -2.892919e-09 16.12321 -8.280835 8.670132 6.739567 4.891204 -18.66951 -1.552196 -95.71939 29.94466 24.97745 1.351804e-09 -1.984806e-09 -15.26547 3.401562 16.00727 11.36172
1.574422 104.2565 6.565203 -0.09782582 2.084127 1.897451 3.680584 -21.08392 7.249305 -1.249745e-09 37.51506 2.420055e-09 -7.818764 -10.1203 -1.799147 -6.6874 9.668761 -21.81362 9.399126e-09 3.614421 2.314395e-09 5.572458 -18.48924 21.82157 -3.398808 -2.465023 3.783036 2.720963 8.488753 -7.982629 0.8256722 21.41596 7.929999 4.156408 -26.32127 9.260862 7.034479 -19.42876 11.427 85.85323 38.45683 -19.03976 -3.621712e-09 -2.663805e-09 15.41483 -8.28282 8.781205 6.547421 5.08512 -19.0316 -1.686288 -95.09639 29.92238 23.78793 1.197483e-09 -1.830339e-09 -16.36151 3.674879 15.9852 11.01146
2.003752 104.3349 8.893523 -0.1669444 2.149774 2.407035 3.943048 -23.1452 7.003388 -1.238616e-09 34.91325 1.935976e-09 -7.760894 -10.06453 -2.064633 -6.487472 11.22732 -21.46301 7.599409e-09 3.912307 1.903427e-09 5.472866 -19.00173 21.39102 -3.316971 -2.440122 3.600961 2.85471 8.503335 -8.248693 0.8212667 21.37684 7.910781 4.108486 -26.2319 9.232147 6.839203 -19.12344 11.38939 86.67666 38.15192 -20.14115 -3.207337e-09 -2.299694e-09 14.69545 -8.307623 8.959156 6.329324 5.345267 -19.55292 -1.852323 -94.24588 29.71681 22.43538 9.194467e-10 -1.526015e-09 -17.80449 4.079137 15.9479 10.4539
2.359729 104.2239 11.32476 -0.265907 2.243482 2.861216 4.301602 -25.12433 6.723572 -1.236427e-09 31.19789 1.315201e-09 -7.736719 -10.25773 -2.310175 -6.20604 12.51913 -20.92319 5.221116e-09 4.454417 1.476918e-09 5.311435 -19.39756 20.84902 -3.171889 -2.414202 3.466899 3.011212 8.537604 -8.528355 0.8103084 21.28528 7.846535 4.036232 -26.11448 9.14231 6.570106 -18.86668 11.36444 87.39386 37.74789 -21.21141 -2.684402e-09 -1.857671e-09 14.00747 -8.368953 9.191726 6.109669 5.631316 -20.15392 -2.031887 -93.27371 29.36437 21.03384 5.762363e-10 -1.121877e-09 -19.4161 4.54465 15.87326 9.789275
2.636709 103.9093 13.88815 -0.3692176 2.301524 3.239734 4.701066 -26.88665 6.450549 -1.242636e-09 27.02012 6.593875e-10 -7.684487 -10.56595 -2.565493 -5.894945 13.5498 -20.23945 2.622419e-09 5.408482 1.106974e-09 5.054745 -19.65289 20.23589 -2.988883 -2.370056 3.376301 3.163732 8.588837 -8.790931 0.8063457 21.18373 7.750434 3.945644 -25.94678 9.019142 6.263889 -18.62109 11.34848 88.04529 37.27197 -22.20862 -2.112858e-09 -1.389408e-09 13.34785 -8.498297 9.476961 5.910166 5.90922 -20.76436 -2.216289 -92.2775 28.91406 19.62659 2.245212e-10 -6.741682e-10 -21.06104 5.004428 15.73274 9.119439
2.841166 103.4301 16.61843 -0.4446395 2.249014 3.539072 5.066766 -28.22014 6.233597 -1.209773e-09 23.32159 1.026816e-10 -7.551075 -10.80766 -2.849943 -5.623928 14.30124 -19.50039 3.465427e-10 6.948481 8.959928e-10 4.685135 -19.73057 19.62824 -2.803818 -2.292327 3.325065 3.276858 8.656852 -8.993273 0.8242155 21.12964 7.643508 3.850663 -25.72064 8.900995 5.976492 -18.35667 11.3414 88.67949 36.77361 -23.06496 -1.587958e-09 -9.735738e-10 12.73221 -8.721424 9.795807 5.760673 6.128882 -21.28653 -2.392747 -91.42093 28.4479 18.32502 -5.92617e-11 -2.759638e-10 -22.5154 5.374638 15.51528 8.576379
2.988484 102.9041 19.54162 -0.478939 2.033756 3.765646 5.370322 -28.84034 6.138373 -9.803956e-10 20.98691 -1.913528e-10 -7.366752 -10.80348 -3.148796 -5.448744 14.68816 -18.80141 -9.215149e-10 9.549504 1.014915e-09 4.180603 -19.49735 19.07079 -2.630198 -2.175401 3.316358 3.324149 8.746157 -9.087422 0.8726832 21.15372 7.536981 3.772491 -25.45492 8.804655 5.776318 -18.0376 11.3454 89.23149 36.33104 -23.68731 -1.228001e-09 -7.087057e-10 12.14761 -8.98158 10.09273 5.648324 6.215096 -21.61109 -2.543461 -90.80875 28.06728 17.28672 -1.761521e-10 -5.644122e-11 -23.48434 5.586521 15.23783 8.270376
3.098634 102.499 22.65682 -0.475448 1.65293 3.93194 5.595333 -28.59375 6.173317 -4.454357e-10 20.46264 -1.273403e-10 -7.211987 -10.428 -3.413476 -5.389504 14.67172 -18.21442 -7.709063e-10 13.35787 1.490535e-09 3.57714 -18.86439 18.58294 -2.469572 -2.03106 3.340774 3.294397 8.853795 -9.042885 0.9481901 21.23456 7.430153 3.723942 -25.16656 8.720797 5.691232 -17.6468 11.34965 89.50876 35.98715 -23.96757 -1.103579e-09 -6.519194e-10 11.57013 -9.18822 10.28988 5.539885 6.12054 -21.66655 -2.659942 -90.36772 27.82296 16.59671 -7.096487e-11 -9.883234e-11 -23.74912 5.63819 14.94114 8.198996
3.187971 102.3387 25.99285 -0.44104 1.100748 4.031809 5.79086 -27.39477 6.314863 3.593268e-10 21.06152 1.689499e-10 -7.050228 -9.892297 -3.660319 -5.382556 14.02572 -17.60471 2.923151e-10 18.48066 2.20698e-09 2.833324 -17.79135 18.15373 -2.292705 -1.848565 3.44744 3.196731 9.006004 -8.872982 1.053118 21.3887 7.304413 3.690467 -24.84547 8.633527 5.675429 -17.2537 11.3817 89.66542 35.68354 -23.9564 -1.140649e-09 -7.370316e-10 11.08504 -9.453889 10.47387 5.484657 5.878412 -21.52842 -2.753522 -90.21291 27.6342 16.27596 1.935456e-10 -3.216658e-10 -23.47052 5.547557 14.58951 8.343666
3.25106 102.5413 29.53876 -0.4451063 0.5118688 4.029136 6.110551 -25.34924 6.56269 1.487727e-09 21.74621 6.25279e-10 -7.084817 -9.420595 -3.806628 -5.328486 12.65458 -16.92356 1.939711e-09 25.21349 3.159802e-09 1.977117 -16.16294 17.68356 -2.029859 -1.662899 3.657305 3.087467 9.205909 -8.619521 1.159233 21.51638 7.128941 3.676489 -24.56902 8.475228 5.709895 -16.89128 11.45113 89.48736 35.45829 -23.69848 -1.291665e-09 -9.290951e-10 10.65105 -9.592965 10.60416 5.37743 5.497647 -21.27656 -2.814363 -90.16181 27.46151 16.35115 5.997398e-10 -6.809344e-10 -22.75749 5.403868 14.24492 8.568754
3.283273 103.1431 33.32045 -0.4794075 -0.1303581 3.872987 6.538711 -22.36913 6.857919 2.801888e-09 21.86439 1.104418e-09 -7.202047 -9.25932 -3.882386 -5.154136 10.31878 -16.03247 3.493633e-09 33.23411 4.238566e-09 0.9923601 -14.02458 17.21926 -1.67631 -1.456386 4.020564 2.963426 9.470882 -8.291883 1.272729 21.64846 6.892145 3.658662 -24.29999 8.246606 5.733719 -16.65789 11.58186 89.16757 35.22693 -23.20497 -1.462966e-09 -1.145889e-09 10.4253 -9.799521 10.79581 5.322941 5.033287 -20.98204 -2.85242 -90.38104 27.20682 16.83733 1.054649e-09 -1.057842e-09 -21.80032 5.201054 13.8467 8.883142
3.29226 104.0974 37.30894 -0.545173 -0.7064454 3.529894 6.963429 -18.51748 7.10493 4.027967e-09 21.13611 1.520765e-09 -7.383682 -9.596629 -3.801414 -4.813811 6.95665 -15.00047 4.504868e-09 40.90013 5.35058e-09 0.06705175 -11.61088 16.86953 -1.279207 -1.266001 4.527434 2.823777 9.746077 -7.891116 1.369511 21.7007 6.60193 3.62099 -24.03499 7.943437 5.705388 -16.67684 11.73988 88.38282 34.99722 -22.24681 -1.622519e-09 -1.348059e-09 10.61747 -10.07353 11.00203 5.385363 4.541802 -20.61743 -2.839325 -90.72788 26.85126 17.79401 1.461596e-09 -1.362564e-09 -20.57845 4.938991 13.42848 9.238813
3.289759 105.279 41.50989 -0.5981589 -1.254211 2.994442 7.274922 -14.19844 7.23882 4.945241e-09 19.68271 1.781692e-09 -7.413969 -10.3652 -3.661797 -4.316232 2.948814 -13.81817 4.500746e-09 47.21749 6.53324e-09 -0.773148 -9.261658 16.6803 -0.9047465 -1.072443 5.12315 2.652311 10.00558 -7.446602 1.462037 21.72034 6.287357 3.542669 -23.69466 7.622468 5.583385 -16.92528 11.90055 87.40457 34.66933 -20.93847 -1.695161e-09 -1.466238e-09 11.22906 -10.59643 11.29224 5.650913 4.106422 -20.22806 -2.801126 -91.18048 26.36242 18.95194 1.72303e-09 -1.509044e-09 -19.34104 4.618422 12.93565 9.629571
3.299776 106.5173 45.8978 -0.6127584 -1.725185 2.297365 7.360337 -9.69427 7.228807 5.336293e-09 17.90057 1.832777e-09 -7.228443 -11.49001 -3.439929 -3.706658 -1.413741 -12.62074 3.449904e-09 50.78822 7.704184e-09 -1.389187 -7.297481 16.72898 -0.6275436 -0.9016367 5.748709 2.438581 10.20205 -6.969604 1.539715 21.69124 5.984172 3.42193 -23.27365 7.324662 5.36024 -17.43535 12.02667 86.18147 34.23697 -19.22436 -1.684675e-09 -1.490235e-09 12.3287 -11.38485 11.61206 6.167418 3.776742 -19.78973 -2.731904 -91.66292 25.77567 20.25491 1.78243e-09 -1.473154e-09 -18.08585 4.244044 12.40937 10.02916
3.343431 107.6123 50.43128 -0.5837272 -2.078051 1.488999 7.209807 -5.505826 7.04609 5.097611e-09 15.84754 1.615233e-09 -6.842281 -12.82164 -3.132739 -3.034633 -5.645857 -11.48847 1.486354e-09 50.9134 8.588257e-09 -1.688832 -5.963324 16.97365 -0.4778524 -0.778352 6.324908 2.199199 10.3118 -6.505079 1.590888 21.59043 5.714762 3.261349 -22.77801 7.068306 5.015129 -18.16237 12.08631 84.75954 33.65463 -17.23606 -1.559335e-09 -1.386577e-09 13.79975 -12.38871 11.90619 6.897295 3.603024 -19.35402 -2.657107 -91.98155 25.09528 21.49807 1.598013e-09 -1.236951e-09 -16.95439 3.898717 11.90727 10.31042
3.457742 108.3116 55.1151 -0.4589962 -2.372239 0.6411093 6.737833 -1.744865 6.720357 4.055233e-09 13.79437 1.007831e-09 -6.03277 -14.37059 -2.811515 -2.352036 -9.639507 -10.4258 -1.290754e-09 46.94208 8.704165e-09 -1.692878 -5.482 17.47873 -0.5143376 -0.6802302 6.844483 1.911518 10.3216 -6.060004 1.634066 21.49541 5.507433 3.046855 -22.15574 6.915858 4.53844 -19.12369 12.07445 83.46879 32.89459 -15.04816 -1.300209e-09 -1.114644e-09 15.73523 -13.81013 12.24979 7.958646 3.63506 -18.9293 -2.583754 -92.32679 24.33079 22.5998 1.099847e-09 -7.544668e-10 -16.08238 3.517852 11.36219 10.57644
